<?xml version="1.0" encoding="utf-8"?>
<svg version="1.1" id="Livello_1" xmlns="http://www.w3.org/2000/svg" xmlns:xlink="http://www.w3.org/1999/xlink" x="0px" y="0px"
	 viewBox="0 0 1200 1200" style="enable-background:new 0 0 1200 1200;" xml:space="preserve">
<style type="text/css">
	.st0{fill:#FFFFFF;stroke:#000000;stroke-miterlimit:10;}
</style>
<circle class="st0" cx="600" cy="600" r="600"/>
<g transform="translate(0.000000,1200.000000) scale(0.100000,-0.100000)">
	<path d="M6450,6037C5199,4420,4174,3092,4172,3086c-1-6,7-17,19-24c19-12,24-11,39,5c52,54,4540,5867,4537,5876c-2,6-12,16-23,23
		C8726,8977,8555,8758,6450,6037z"/>
	<path d="M1790,8953c-322-34-678-194-907-408l-67-62l124-139c68-76,132-148,142-159c17-19,19-17,120,81c154,150,277,225,454,276
		c104,29,323,32,424,4c165-45,300-151,363-283c29-62,32-77,32-163c0-129-25-183-138-295c-106-106-228-185-518-336
		c-362-189-530-300-685-455c-230-229-334-480-351-841l-6-133h1817h1816v-425v-425h225h225v425v425h330h330v200v200h-330h-330v1130
		v1130h-152h-153l-874-1130l-874-1130h-754h-755l7,33c33,152,169,329,366,476c112,84,249,164,519,305c242,127,346,191,454,283
		c75,64,164,169,219,259c140,231,121,553-47,787c-173,244-492,381-872,375C1878,8958,1809,8955,1790,8953z M4457,6443
		c-2-2-272-2-600-1l-597,3l598,783l597,782l3-782C4459,6799,4459,6445,4457,6443z"/>
	<path d="M7560,5544c-14-2-59-9-99-15c-300-44-602-260-772-551c-59-101-115-239-146-365c-26-100-28-123-28-303c0-181,2-203,28-303
		c71-272,192-485,378-663c243-232,532-336,846-304c372,38,711,248,852,527l21,43l-33,14c-71,29-69,30-112-41c-53-89-183-218-277-276
		c-289-181-654-206-945-68c-320,153-548,454-623,822c-40,196-25,445,40,639c122,370,411,640,760,712c79,17,121,19,250,15
		c161-5,249-23,374-77c130-55,272-179,357-310l51-78l49,20c27,12,49,25,49,31c0,28-91,159-162,233c-166,173-344,262-588,294
		C7758,5549,7612,5551,7560,5544z"/>
	<path d="M9900,5539c-352-62-662-304-839-657c-301-599-95-1350,464-1688c192-117,354-159,585-151c180,6,274,28,425,102
		c358,174,611,521,680,934c27,157,17,378-23,531c-100,386-334,681-667,841c-151,72-230,90-415,94C10025,5547,9930,5545,9900,5539z
		 M10198,5430c436-55,806-433,898-917c24-128,22-321-6-452c-64-313-239-583-482-744c-180-120-315-161-533-160c-209,0-351,41-524,153
		c-439,285-627,891-434,1405c104,277,290,494,533,619C9828,5425,9997,5455,10198,5430z"/>
</g>
</svg>
